<svg xmlns="http://www.w3.org/2000/svg" xmlns:xlink="http://www.w3.org/1999/xlink" version="1.1" x="0px" y="0px" viewBox="0 0 100 125" enable-background="new 0 0 100 100" xml:space="preserve"><g><path d="M53.963,20.895h9.942c0.796,0,1.441-0.645,1.441-1.441c0-0.795-0.645-1.44-1.441-1.44h-9.942   c-0.796,0-1.441,0.645-1.441,1.44C52.522,20.25,53.167,20.895,53.963,20.895z" fill="#ffffff"/><path d="M63.905,84.106c0.796,0,1.441-0.645,1.441-1.441c0-0.795-0.645-1.44-1.441-1.44h-9.942c-0.796,0-1.441,0.645-1.441,1.44   c0,0.796,0.645,1.441,1.441,1.441H63.905z" fill="#ffffff"/><path d="M17.956,27.789c0.796,0,1.441-0.645,1.441-1.44v-5.574h5.573c0.796,0,1.441-0.644,1.441-1.44   c0-0.796-0.645-1.441-1.441-1.441h-7.014c-0.795,0-1.441,0.645-1.441,1.441v7.014C16.515,27.144,17.161,27.789,17.956,27.789z" fill="#ffffff"/><path d="M34.54,20.895h9.943c0.796,0,1.44-0.645,1.44-1.441c0-0.795-0.644-1.44-1.44-1.44H34.54c-0.796,0-1.44,0.645-1.44,1.44   C33.099,20.25,33.744,20.895,34.54,20.895z" fill="#ffffff"/><path d="M18.097,34.937c-0.796,0-1.44,0.645-1.44,1.441v9.942c0,0.796,0.644,1.441,1.44,1.441c0.796,0,1.441-0.645,1.441-1.441   v-9.942C19.538,35.582,18.893,34.937,18.097,34.937z" fill="#ffffff"/><path d="M80.828,47.761c0.795,0,1.441-0.645,1.441-1.441v-9.942c0-0.796-0.646-1.441-1.441-1.441c-0.795,0-1.44,0.645-1.44,1.441   v9.942C79.387,47.116,80.032,47.761,80.828,47.761z" fill="#ffffff"/><path d="M80.884,17.894H73.87c-0.795,0-1.441,0.645-1.441,1.441c0,0.795,0.646,1.44,1.441,1.44h5.573v5.574   c0,0.795,0.645,1.44,1.44,1.44c0.796,0,1.44-0.645,1.44-1.44v-7.014C82.325,18.539,81.68,17.894,80.884,17.894z" fill="#ffffff"/><path d="M80.856,74.104c-0.796,0-1.44,0.644-1.44,1.44v5.573h-5.573c-0.795,0-1.441,0.645-1.441,1.44   c0,0.795,0.646,1.441,1.441,1.441h7.014c0.795,0,1.441-0.646,1.441-1.441v-7.014C82.297,74.749,81.652,74.104,80.856,74.104z" fill="#ffffff"/><path d="M49.796,82.438v-29.83l18.365-18.365v9.335c0,0.796,0.645,1.441,1.441,1.441c0.795,0,1.44-0.645,1.44-1.441V30.765   c0-0.004,0-0.007,0-0.012c-0.001-0.043-0.002-0.086-0.007-0.13c-0.001-0.008-0.002-0.017-0.003-0.026   c-0.004-0.034-0.009-0.066-0.015-0.1c-0.003-0.017-0.006-0.032-0.01-0.048c-0.006-0.026-0.012-0.052-0.02-0.077   c-0.005-0.017-0.009-0.033-0.014-0.049c-0.012-0.037-0.025-0.074-0.041-0.109v0c-0.006-0.016-0.014-0.03-0.021-0.045   c-0.01-0.024-0.021-0.047-0.034-0.07c-0.008-0.015-0.017-0.03-0.025-0.045c-0.014-0.024-0.028-0.046-0.042-0.069   c-0.009-0.012-0.017-0.025-0.025-0.037c-0.023-0.033-0.046-0.066-0.072-0.096l-0.002-0.003c-0.027-0.032-0.055-0.063-0.084-0.092   c-0.008-0.009-0.017-0.017-0.026-0.026c-0.022-0.021-0.045-0.042-0.068-0.061c-0.01-0.009-0.02-0.018-0.03-0.026   c-0.026-0.021-0.053-0.041-0.081-0.06c-0.007-0.005-0.014-0.011-0.021-0.015c-0.033-0.021-0.067-0.042-0.101-0.061   c-0.014-0.008-0.029-0.014-0.043-0.022c-0.023-0.011-0.045-0.022-0.069-0.034c-0.015-0.007-0.032-0.014-0.048-0.02   c-0.027-0.011-0.054-0.021-0.082-0.03c-0.013-0.004-0.025-0.009-0.038-0.013c-0.037-0.011-0.076-0.021-0.114-0.029   c-0.015-0.003-0.029-0.005-0.044-0.009c-0.029-0.005-0.059-0.01-0.089-0.013c-0.014-0.002-0.028-0.003-0.042-0.004   c-0.043-0.004-0.086-0.007-0.131-0.007H55.556c-0.795,0-1.44,0.645-1.44,1.44c0,0.796,0.645,1.441,1.44,1.441h10.568L47.759,50.571   h-29.83c-0.797,0-1.441,0.645-1.441,1.44v30.427c0,0.796,0.644,1.441,1.441,1.441h30.426   C49.151,83.879,49.796,83.234,49.796,82.438z M46.915,80.998H19.37V53.453h27.545V80.998z" fill="#ffffff"/><path d="M79.387,65.742c0,0.796,0.645,1.441,1.44,1.441c0.795,0,1.441-0.645,1.441-1.441V55.8c0-0.796-0.646-1.441-1.441-1.441   c-0.795,0-1.44,0.645-1.44,1.441V65.742z" fill="#ffffff"/></g></svg>